<svg id="mysvg" width="1280" height="1000" viewBOX="0, 0,1280,1000" style="enable-background:new 0 0 1280 1000;" xmlns="http://www.w3.org/2000/svg" xmlns:xlink="http://www.w3.org/1999/xlinks">
<style type="text/css">
#mysvg{background-color:black;}
#rightmiddle{opacity:0.5;}
#leftinsideside{opacity:0.5;}
#rightinsideside{opacity:0.5;}
#leftoutsideside{opacity:0.5;}
#rightoutsideside{opacity:0.5;}
#thinginthecenter{animation:6s linear 0s infinite alternate centerfadeout2;}
@keyframes centerfadeout2{
    from{opacity:0.7;}
    to{opacity:0.3;}
}
#centerthing2{animation:6s linear 0s infinite alternate centerfadeout;}
@keyframes centerfadeout{
    from{opacity:0.1;}
    to{opacity:0.3;}
}
#jellyfish{
    transform-box:fill-box;
    transform-origin:center;
    transform:rotate(10deg);
    animation:6s linear 0s infinite alternate upanddown;}
@keyframes upanddown  {
    0%{transform: translate(0%,0%);}
    60%{transform:translate(10%,-20%);}
    
}
#slines1,#slinesr10,#slinesol9,#slinesor10{ 
    animation:slines1 1s linear infinite;
}
@keyframes slines1  {
    0%{opacity:0.1;}
}
#slines2,#slinesr9,#slinesol8,#slinesor9{ 
    animation:slines2 1s linear infinite;
}
@keyframes slines2  {
    10%{opacity:0.1;}
}
#slines3,#slinesr8,#slinesol7,#slinesor9 { 
    animation:slines3 1s linear infinite;
}
@keyframes slines3  {
    20%{opacity:0.1;}
}
#slines4,#slinesr7,#slinesol6,#slinesor8 { 
    animation:slines4 1s linear infinite;
}
@keyframes slines4  {
    30%{opacity:0.1;}
}
#slines5,#slinesr6,#slinesol5,#slinesor7 { 
    animation:slines5 1s linear infinite;
}
@keyframes slines5  {
    40%{opacity:0.1;}
}
#slines6,#slinesr5,#slinesol4,#slinesor6 { 
    animation:slines6 1s linear infinite;
}
@keyframes slines6  {
    50%{opacity:0.1;}
}
#slines7,#slinesr4,#slinesol3,#slinesor5 { 
    animation:slines7 1s linear infinite;
}
@keyframes slines7  {
    60%{opacity:0.1;}
}
#slines8,#slinesr3,#slinesol2,#slinesor4 { 
    animation:slines8 1s linear infinite;
}
@keyframes slines8  {
    70%{opacity:0.1;}
}
#slines9,#slinesr2,#slinesol1,#slinesor3 { 
    animation:slines9 1s linear infinite;
}
@keyframes slines9  {
    80%{opacity:0.1;}
}
#slines10,#slinesr1,#slinesor2,#slinesor1 { 
    animation:slines10 1s linear infinite;
}
@keyframes slines10  {
    90%{opacity:0.1;}
}

</style>     

    <linearGradient id="linegradient1" gradientUnits="objectBoundingBox" spreadMethod="repeat"
        x1="0" y1="0" x2="0" y2="100">
                <stop offset="10%" stop-color="yellowgreen" />
                <stop offset="20%" stop-color="deeppink" />
                <stop offset="30%" stop-color="orange" />
                <stop offset="40%" stop-color="black" />
                <stop offset="50%" stop-color="black" />
                <stop offset="60%" stop-color="pink" />
                <stop offset="70%" stop-color="yellowgreen" />
                <stop offset="80%" stop-color="deeppink" />
                <stop offset="90%" stop-color="black" />
                <stop offset="100%" stop-color="black" />
                <animate attributeName ="y1" dur="3s" from="200%" to="0%" repeatCount = "indefinite"/>
                <animate attributeName ="y2" dur="3s" from="100%" to="-100%" repeatCount = "indefinite"/>
    </linearGradient>

 <g id="jellyfish">
    <!--bioluminescent Jellyfish-->
    <!--the thing in center-->
    <g id="thinginthecenter">
    <path id="centerthing" d="M600,305 C570,315 568,375 580,420 S615,445 620,430 S650,325 600,305" stroke="white" fill="none" stroke-width="1"/>
    <path id="centerthing2" d="M600,305 C570,315 568,375 580,420 S615,445 620,430 S650,325 600,305" stroke="white" fill="white" stroke-width="1"/>
    <path id="centerright1" d="M615,390 Q620,400 612,420" stroke="white" fill="none" stroke-width="2"/>
    <path id="centerleft1" d="M585,390 Q580,400 590,420" stroke="white" fill="none" stroke-width="2"/>
    
    <!--right tenticle animation-->
    <path id="centerright2" d="M616,405 Q690,630 580,750 C580,750 480,850 390,840" stroke="white" fill="none" stroke-width="2">
    <animate attributeName="d" dur="6s" repeatCount="indefinite" values="M616,405 Q690,630 580,750 C580,750 480,850 390,840;M616,405 Q690,610 560,730 C560,730 460,830 370,820;M616,405 Q690,630 580,750 C580,750 480,850 390,840;"/>
    </path>
    
    <!--small hair right side animation-->
    <path d="M580,750 578,758" stroke="white" fill="none">
    <animate attributeName="d" dur="6s" repeatCount="indefinite" values="M580,750 578,758;M560,730 555,738;M580,750 578,758;"/>
    </path>

    <path d="M586,744 584,751" stroke="white" fill="none">
    <animate attributeName="d" dur="6s" repeatCount="indefinite" values="M586,744 584,751;M566,724 560,735;M586,744 584,751;"/>
    </path>

    <path d="M592,737 590,744" stroke="white" fill="none">
    <animate attributeName="d" dur="6s" repeatCount="indefinite" values="M592,737 590,744;M572,718 566,729;M592,737 590,744;"/>
    </path>

    <!--left tenticle animation-->
    <path id="centerleft2" d="M585,405 Q620,600 480,680 C480,680 380,740 290,710" stroke="white" fill="none" stroke-width="2">
    <animate attributeName="d" dur="6s" repeatCount="indefinite" values="M585,405 Q620,600 480,680 C480,680 380,740 290,710;M585,405 Q620,590 460,670 C460,670 360,720 265,695;M585,405 Q620,600 480,680 C480,680 380,740 290,710;"/>
    </path>

    <!--hair left-->
    <path d="M494,671 Q493,675 496,679" stroke="white" fill="none">
    <animate attributeName="d" dur="6s" repeatCount="indefinite" values="M494,671 Q493,675 496,679;M460,670 Q457,674 458,678;M494,671 Q493,675 496,679;"/>
    </path>
    <path d="M488,675 Q487,680 490,683" stroke="white" fill="none">
    <animate attributeName="d" dur="6s" repeatCount="indefinite" values="M488,675 Q487,680 490,683;M454,674 Q451,681 452,683;M488,675 Q487,680 490,683;"/>
    </path>
    <path d="M481,679 Q481,685 484,687" stroke="white" fill="none">
    <animate attributeName="d" dur="6s" repeatCount="indefinite" values="M481,679 Q481,685 484,687;M447,677 Q445,686 445,687;M481,679 Q481,685 484,687;"/>
    </path>
    <path d="M476,682 Q475,687 478,690" stroke="white" fill="none">   
    <animate attributeName="d" dur="6s" repeatCount="indefinite" values="M476,682 Q475,687 478,690;M441,680 Q438,688 439,690;M476,682 Q475,687 478,690;"/>
    </path>
    <!--going up-->
    <path d="M466,686 Q463,680 462,665" stroke="white" fill="none">
    <animate attributeName="d" dur="6s" repeatCount="indefinite" values="M466,686 Q463,680 462,665;M431,681 Q425,673 428,665;M466,686 Q463,680 462,665;"/>
    </path>
    <path d="M459,690 Q452,670 453,655" stroke="white" fill="none">
    <animate attributeName="d" dur="6s" repeatCount="indefinite" values="M459,690 Q452,670 453,655;M423,683 Q413,670 421,655;M459,690 Q452,670 453,655;"/>
    </path>    
    <path d="M450,695 Q440,665 443,635" stroke="white" fill="none">
    <animate attributeName="d" dur="6s" repeatCount="indefinite" values="M450,695 Q440,665 443,635;M415,686 Q401,660 417,635;M450,695 Q440,665 443,635;"/>
    </path>
    <path d="M440,699 Q426,650 435,600" stroke="white" fill="none">
    <animate attributeName="d" dur="6s" repeatCount="indefinite" values="M440,699 Q426,650 435,600;M405,689 Q383,645 423,606;M440,699 Q426,650 435,600;"/>
    </path>
    <path d="M430,703 Q416,655 425,610" stroke="white" fill="none">
    <animate attributeName="d" dur="6s" repeatCount="indefinite" values="M430,703 Q416,655 425,610;M397,691 Q373,650 406,610;M430,703 Q416,655 425,610;"/>
    </path>
    <path d="M420,706 Q406,660 412.5,625" stroke="white" fill="none">
    <animate attributeName="d" dur="6s" repeatCount="indefinite" values="M420,706 Q406,660 412.5,625;M387,694 Q365,655 389,620;M420,706 Q406,660 412.5,625;"/>
    </path>
    <path d="M410,710 Q400,675 402,655" stroke="white" fill="none">
    <animate attributeName="d" dur="6s" repeatCount="indefinite" values="M410,710 Q400,675 402,655;M377,696 Q359,671 369,643;M410,710 Q400,675 402,655;"/>
    </path>
    </g>

    <!--middle line-->
    <!--left outside-->
    <path d="M600,555 C488,545 480,450 490,400 S530,310 600,305" stroke="none" fill="none" stroke-width="3"/>
    <!--right outside-->
    <path d="M600,555 C712,545 720,450 710,400 S670,310 600,305" stroke="none" fill="none" stroke-width="3"/>
    <!--right inside-->
    <path id="rightmiddle" d="M600,555 C670,545 680,450 673,400 S640,310 600,305" stroke="none" fill="none" stroke-width="3"/>
    <!--left inside-->
    <path id="leftmiddle" d="M600,555 C530,545 520,450 527,400 S560,310 600,305" stroke="none" fill="none" stroke-width="5"/>

    <!--side lines (left inside)-->
    <g id="leftinsideside">
    <path d="M600,555 C535,545 525,450 532,400 S565,310 605,305" stroke="white" fill="none"/>
    <path d="M600,555 C525,545 515,450 522,400 S555,310 595,305" stroke="white" fill="none"/>
    </g>

    <!--side lines (left outside)-->
    <g id="leftoutsideside">
    <path d="M600,555 C495,545 485,450 495,400 S535,310 605,305" stroke="white" fill="none"/>
    <path d="M600,555 C485,545 475,450 485,400 S525,310 595,305" stroke="white" fill="none"/>
    </g>
    <!--side lines (right inside)-->
    <g id="rightinsideside">
    <path d="M600,555 C675,545 685,450 678,400 S645,310 605,305" stroke="white" fill="none"/>
    <path d="M600,555 C665,545 675,450 668,400 S635,310 595,305" stroke="white" fill="none"/>
    </g>
    <!--side lines (right outside)-->
    <g id="rightoutsideside">
    <path d="M600,555 C715,545 725,450 715,400 S675,310 605,305" stroke="white" fill="none"/>
    <path d="M600,555 C705,545 715,450 705,400 S665,310 595,305" stroke="white" fill="none"/>
    </g>
    <!--left outside small lines-->
<g id="slinesol1">
    <path d="M553.5,315 556,315" stroke="#00ffb4" fill="none" stroke-width="2"/>
    <path d="M542,320 545,320" stroke="#00ffb4" fill="none" stroke-width="2"/>
    <path d="M532.5,325 537.5,325" stroke="#00ffb4" fill="none" stroke-width="2"/>
    <path d="M526,330 531,330" stroke="#00ffb4" fill="none" stroke-width="2"/>
    <path d="M520,335 526,335" stroke="#00ffb4" fill="none" stroke-width="2"/>
</g>
<g id="slinesol2">
    <path d="M514.7,340 521.5,340" stroke="#00ffb4" fill="none" stroke-width="2"/>
    <path d="M510.6,345 517.5,345" stroke="#00ffb4" fill="none" stroke-width="2"/>
    <path d="M506.5,350 513.5,350" stroke="#00ffb4" fill="none" stroke-width="2"/>
    <path d="M503.2,355 510.5,355" stroke="#00ffb4" fill="none" stroke-width="2"/>
    <path d="M500.2,360 508,360" stroke="#00ffb4" fill="none" stroke-width="2"/>
</g>
<g id="slinesol3">
    <path d="M497.6,365 505.6,365" stroke="#00ffb4" fill="none" stroke-width="2"/>
    <path d="M495,370 503,370" stroke="#00ffb4" fill="none" stroke-width="2"/>
    <path d="M492.8,375 501.3,375" stroke="#00ffb4" fill="none" stroke-width="2"/>
    <path d="M491.1,380 499.5,380" stroke="#00ffb4" fill="none" stroke-width="2"/>
    <path d="M489,385 497.6,385" stroke="#00ffb4" fill="none" stroke-width="2"/>
</g>
<g id="slinesol4">
    <path d="M487.5,390 496,390" stroke="#00ffb4" fill="none" stroke-width="2"/>
    <path d="M485.8,395 494.8,395" stroke="#00ffb4" fill="none" stroke-width="2"/>
    <!--middle point-->
    <path d="M485,400 494,400" stroke="#00ffb4" fill="none" stroke-width="2"/>
    <path d="M484,405 493,405" stroke="#00ffb4" fill="none" stroke-width="2"/>
    <path d="M483.5,410 492.5,410" stroke="#00ffb4" fill="none" stroke-width="2"/>
</g>
<g id="slinesol5">
    <path d="M483.2,415 491.8,415" stroke="#00ffb4" fill="none" stroke-width="2"/>
    <path d="M482.8,420 491.8,420" stroke="#00ffb4" fill="none" stroke-width="2"/>
    <path d="M482.8,425 491.8,425" stroke="#00ffb4" fill="none" stroke-width="2"/>
    <path d="M482.8,430 491.8,430" stroke="#00ffb4" fill="none" stroke-width="2"/>
    <path d="M482.8,435 491.8,435" stroke="#00ffb4" fill="none" stroke-width="2"/>
</g>
<g id="slinesol6">
    <path d="M482.8,440 491.8,440" stroke="#00ffb4" fill="none" stroke-width="2"/>
    <path d="M482.8,445 491.8,445" stroke="#00ffb4" fill="none" stroke-width="2"/>
    <path d="M483.5,450 491.8,450" stroke="#00ffb4" fill="none" stroke-width="2"/>
    <path d="M484.5,455 492.5,455" stroke="#00ffb4" fill="none" stroke-width="2"/>
    <path d="M485.5,460 493.5,460" stroke="#00ffb4" fill="none" stroke-width="2"/>
</g>
<g id="slinesol7">
    <path d="M486.5,465 494.5,465" stroke="#00ffb4" fill="none" stroke-width="2"/>
    <path d="M488,470 495.5,470" stroke="#00ffb4" fill="none" stroke-width="2"/>
    <path d="M489.5,475 497,475" stroke="#00ffb4" fill="none" stroke-width="2"/>
    <path d="M491.2,480 498.5,480" stroke="#00ffb4" fill="none" stroke-width="2"/>
    <path d="M493.2,485 500.2,485" stroke="#00ffb4" fill="none" stroke-width="2"/>
</g>
<g id="slinesol8">
    <path d="M495.3,490 502.3,490" stroke="#00ffb4" fill="none" stroke-width="2"/>
    <path d="M497.8,495 504.5,495" stroke="#00ffb4" fill="none" stroke-width="2"/>
    <path d="M500.5,500 507,500" stroke="#00ffb4" fill="none" stroke-width="2"/>
    <path d="M503.85,505 510,505" stroke="#00ffb4" fill="none" stroke-width="2"/>
    <path d="M507.5,510 513,510" stroke="#00ffb4" fill="none" stroke-width="2"/>
</g>
<g id="slinesol9">
    <path d="M512,515 516.5,515" stroke="#00ffb4" fill="none" stroke-width="2"/>
    <path d="M517,520 521,520" stroke="#00ffb4" fill="none" stroke-width="2"/>
    <path d="M522.5,525 525.5,525" stroke="#00ffb4" fill="none" stroke-width="2"/>
    <path d="M528.5,530 531,530" stroke="#00ffb4" fill="none" stroke-width="2"/>
    <path d="M535.5,535 537.5,535" stroke="#00ffb4" fill="none" stroke-width="2"/><!--bottom-->
</g>

    <!--right outside small lines-->
<g id="slinesor1">
    <path d="M635,310 638,310" stroke="#ff005a" fill="none" stroke-width="2"/>
    <path d="M645.5,315 650.5,315" stroke="#ff005a" fill="none" stroke-width="2"/>
    <path d="M654.5,320 661.5,320" stroke="#ff005a" fill="none" stroke-width="2"/>
    <path d="M661.5,325 669,325" stroke="#ff005a" fill="none" stroke-width="2"/>
    <path d="M667,330 676.5,330" stroke="#ff005a" fill="none" stroke-width="2"/>
</g>
<g id="slinesor2">
    <path d="M673,335 682,335" stroke="#ff005a" fill="none" stroke-width="2"/>
    <path d="M678,340 687.5,340" stroke="#ff005a" fill="none" stroke-width="2"/>
    <path d="M682.5,345 691.5,345" stroke="#ff005a" fill="none" stroke-width="2"/>
    <path d="M686,350 695,350" stroke="#ff005a" fill="none" stroke-width="2"/>
    <path d="M689.5,355 698.5,355" stroke="#ff005a" fill="none" stroke-width="2"/>
</g>
<g id="slinesor3">
    <path d="M692.5,360 701.5,360" stroke="#ff005a" fill="none" stroke-width="2"/>
    <path d="M695,365 704,365" stroke="#ff005a" fill="none" stroke-width="2"/>
    <path d="M697,370 706,370" stroke="#ff005a" fill="none" stroke-width="2"/>
    <path d="M699,375 708,375" stroke="#ff005a" fill="none" stroke-width="2"/>
    <path d="M701,380 710,380" stroke="#ff005a" fill="none" stroke-width="2"/>
</g>
<g id="slinesor4">
    <path d="M702.6,385 711.8,385" stroke="#ff005a" fill="none" stroke-width="2"/>
    <path d="M704,390 713,390" stroke="#ff005a" fill="none" stroke-width="2"/>
    <path d="M705,395 714,395" stroke="#ff005a" fill="none" stroke-width="2"/>
    <!--middle point-->
    <path d="M706,400 715,400" stroke="#ff005a" fill="none" stroke-width="2"/>
    <path d="M707,405 716,405" stroke="#ff005a" fill="none" stroke-width="2"/>
</g>
<g id="slinesor5">
    <path d="M707.5,410 716.5,410" stroke="#ff005a" fill="none" stroke-width="2"/>
    <path d="M708,415 717,415" stroke="#ff005a" fill="none" stroke-width="2"/>
    <path d="M708.2,420 717.2,420" stroke="#ff005a" fill="none" stroke-width="2"/>
    <path d="M708.5,425 717.5,425" stroke="#ff005a" fill="none" stroke-width="2"/>
    <path d="M709,430 718,430" stroke="#ff005a" fill="none" stroke-width="2"/>
</g>
<g id="slinesor6">
    <path d="M709,435 718,435" stroke="#ff005a" fill="none" stroke-width="2"/>
    <path d="M708.5,440 717.5,440" stroke="#ff005a" fill="none" stroke-width="2"/>
    <path d="M708,445 717,445" stroke="#ff005a" fill="none" stroke-width="2"/>
    <path d="M707.8,450 716.5,450" stroke="#ff005a" fill="none" stroke-width="2"/>
    <path d="M707.3,455 716.2,455" stroke="#ff005a" fill="none" stroke-width="2"/>
</g>
<g id="slinesor7">
    <path d="M706.4,460 715.3,460" stroke="#ff005a" fill="none" stroke-width="2"/>
    <path d="M705.5,465 714.4,465" stroke="#ff005a" fill="none" stroke-width="2"/>
    <path d="M704.5,470 713.4,470" stroke="#ff005a" fill="none" stroke-width="2"/>
    <path d="M703,475 711.2,475" stroke="#ff005a" fill="none" stroke-width="2"/>
    <path d="M701.2,480 709.2,480" stroke="#ff005a" fill="none" stroke-width="2"/>
</g>
<g id="slinesor8">
    <path d="M699.5,485 707,485" stroke="#ff005a" fill="none" stroke-width="2"/>
    <path d="M697.5,490 705.4,490" stroke="#ff005a" fill="none" stroke-width="2"/>
    <path d="M695.5,495 703,495" stroke="#ff005a" fill="none" stroke-width="2"/>
    <path d="M693,500 700.2,500" stroke="#ff005a" fill="none" stroke-width="2"/>
    <path d="M690,505 697.3,505" stroke="#ff005a" fill="none" stroke-width="2"/>
</g>
<g id="slinesor9">
    <path d="M687,510 693.5,510" stroke="#ff005a" fill="none" stroke-width="2"/>
    <path d="M683.2,515 689.5,515" stroke="#ff005a" fill="none" stroke-width="2"/>
    <path d="M679,520 685,520" stroke="#ff005a" fill="none" stroke-width="2"/>
    <path d="M674.5,525 679.5,525" stroke="#ff005a" fill="none" stroke-width="2"/>
    <path d="M669.5,530 673,530" stroke="#ff005a" fill="none" stroke-width="2"/>
</g>
<g id="slinesor10">
    <path d="M663,535 666,535" stroke="#ff005a" fill="none" stroke-width="2"/>
    <path d="M656,540 657,540" stroke="#ff005a" fill="none" stroke-width="2"/><!--bottom-->
</g>
    <!--right inside small lines-->
<g id="slinesr1">
    <path d="M617.5,310 624,310" stroke="#0054ff" fill="none" stroke-width="2"/>
    <path d="M624.8,315 632,315" stroke="#0090ff" fill="none" stroke-width="2"/>
    <path d="M631,320 638.5,320" stroke="#00baff" fill="none" stroke-width="2"/>
    <path d="M636,325 643.7,325" stroke="#00fff0" fill="none" stroke-width="2"/>
    <path d="M640.4,330 648,330" stroke="#00ffae" fill="none" stroke-width="2"/>
</g>
<g id="slinesr2">
    <path d="M644.5,335 652.5,335" stroke="#00ff66" fill="none" stroke-width="2"/>
    <path d="M648.3,340 655.8,340" stroke="#00ff2a" fill="none" stroke-width="2"/>
    <path d="M651.3,345 658.8,345" stroke="#2aff00" fill="none" stroke-width="2"/>
    <path d="M653.8,350 661.6,350" stroke="#84ff00" fill="none" stroke-width="2"/>
    <path d="M656.5,355 664.5,355" stroke="#c0ff00" fill="none" stroke-width="2"/>
</g>
<g id="slinesr3">
    <path d="M658.6,360 666.4,360" stroke="#f6ff00" fill="none" stroke-width="2"/>
    <path d="M660.5,365 668.5,365" stroke="#ffcc00" fill="none" stroke-width="2"/>
    <path d="M662,370 670,370" stroke="#ffa200" fill="none" stroke-width="2"/>
    <path d="M663.7,375 671.7,375" stroke="#ff8400" fill="none" stroke-width="2"/>
    <path d="M665,380 673,380" stroke="#ff5a00" fill="none" stroke-width="2"/>
</g>
<g id="slinesr4">
    <path d="M666,385 674,385" stroke="#ff2a00" fill="none" stroke-width="2"/>
    <path d="M667.3,390 675.3,390" stroke="#ff0600" fill="none" stroke-width="2"/>
    <path d="M668,395 676,395" stroke="#ff0018" fill="none" stroke-width="2"/>
    <!--middle point-->
    <path d="M668.8,400 676.8,400" stroke="#ff005a" fill="none" stroke-width="2"/>
    <path d="M669.5,405 677.5,405" stroke="#ff00ae" fill="none" stroke-width="2"/>
</g>
<g id="slinesr5">
    <path d="M670,410 678,410" stroke="#ff00d8" fill="none" stroke-width="2"/>
    <path d="M670.5,415 678.5,415" stroke="#fc00ff" fill="none" stroke-width="2"/>
    <path d="M670.6,420 678.6,420" stroke="#d200ff" fill="none" stroke-width="2"/>
    <path d="M670.7,425 678.7,425" stroke="#a800ff" fill="none" stroke-width="2"/>
    <path d="M670.7,430 678.7,430" stroke="#7800ff" fill="none" stroke-width="2"/>
</g>
<g id="slinesr6">
    <path d="M670.7,435 678.7,435" stroke="#4200ff" fill="none" stroke-width="2"/>
    <path d="M670.6,440 678.6,440" stroke="#0c00ff" fill="none" stroke-width="2"/>
    <path d="M670.4,445 678.4,445" stroke="#001eff" fill="none" stroke-width="2"/>
    <path d="M670,450 678,450" stroke="#004eff" fill="none" stroke-width="2"/>
    <path d="M669.5,455 677.5,455" stroke="#00b4ff" fill="none" stroke-width="2"/>
</g>
<g id="slinesr7">
    <path d="M669,460 677,460" stroke="#00e4ff" fill="none" stroke-width="2"/>
    <path d="M668.5,465 676.5,465" stroke="#00ffde" fill="none" stroke-width="2"/>
    <path d="M667.8,470 675.8,470" stroke="#00ffa2" fill="none" stroke-width="2"/>
    <path d="M666.7,475 674.7,475" stroke="#00ff72" fill="none" stroke-width="2"/>
    <path d="M665.6,480 673.6,480" stroke="#00ff3c" fill="none" stroke-width="2"/>
</g>
<g id="slinesr8">
    <path d="M664.2,485 672.2,485" stroke="#00ff18" fill="none" stroke-width="2"/>
    <path d="M662.8,490 670.8,490" stroke="#24ff00" fill="none" stroke-width="2"/>
    <path d="M661.3,495 669.3,495" stroke="#66ff00" fill="none" stroke-width="2"/>
    <path d="M659.5,500 667.5,500" stroke="#9cff00" fill="none" stroke-width="2"/>
    <path d="M657.4,505 665.4,505" stroke="#eaff00" fill="none" stroke-width="2"/>
</g>
<g id="slinesr9">
    <path d="M655.5,510 662.5,510" stroke="#ffd800" fill="none" stroke-width="2"/>
    <path d="M653,515 659.5,515" stroke="#ffa800" fill="none" stroke-width="2"/>
    <path d="M650.2,520 656,520" stroke="#ff7200" fill="none" stroke-width="2"/>
    <path d="M647.2,525 652.2,525" stroke="#ff4e00" fill="none" stroke-width="2"/>
    <path d="M643.4,530 648.4,530" stroke="#ff2a00" fill="none" stroke-width="2"/>
</g>
<g id="slinesr10">
    <path d="M639.3,535 643.5,535" stroke="#ff0030" fill="none" stroke-width="2"/>
    <path d="M634.2,540 637,540" stroke="#ff007e" fill="none" stroke-width="2"/><!--bototm-->
</g>
<g id="slines1">
    <!--left inside small lines-->
    <path d="M563,540 566,540" stroke="#008aff" fill="none" stroke-width="2"/><!--bottom-->
    <path d="M557,535 561,535" stroke="#00deff" fill="none" stroke-width="2"/>
    <path d="M553,530 557,530" stroke="#00ffd8" fill="none" stroke-width="2"/>
    <path d="M548,525 553,525" stroke="#00ff7e" fill="none" stroke-width="2"/>
    <path d="M544,520 550.5,520" stroke="#00ff3c" fill="none" stroke-width="2"/>
</g>
<g id="slines2">
    <path d="M541,515 548,515" stroke="#0cff00" fill="none" stroke-width="2"/>
    <path d="M538,510 546,510" stroke="#72ff00" fill="none" stroke-width="2"/>
    <path d="M535,505 543,505" stroke="#b4ff00" fill="none" stroke-width="2"/>
    <path d="M532.7,500 540.7,500" stroke="#f0ff00" fill="none" stroke-width="2"/>
    <path d="M531,495 539,495" stroke="#ffd200" fill="none" stroke-width="2"/>
</g>
<g id="slines3">
    <path d="M529.5,490 537.5,490" stroke="#ffa200" fill="none" stroke-width="2"/>
    <path d="M528,485 536,485" stroke="#ff6000" fill="none" stroke-width="2"/>
    <path d="M527,480 535,480" stroke="#ff2400" fill="none" stroke-width="2"/>
    <path d="M526,475 534,475" stroke="#ff001e" fill="none" stroke-width="2"/>
    <path d="M525,470 533,470" stroke="#ff0054" fill="none" stroke-width="2"/>
</g>
<g id="slines4">
    <path d="M524,465 532,465" stroke="#ff00a2" fill="none" stroke-width="2"/>
    <path d="M523,460 531,460" stroke="#ff00d8" fill="none" stroke-width="2"/>
    <path d="M522.3,455 530.3,455" stroke="#f000ff" fill="none" stroke-width="2"/>
    <path d="M522,450 529.7,450" stroke="#b400ff" fill="none" stroke-width="2"/>
    <path d="M521.2,445 529.3,445" stroke="#7200ff" fill="none" stroke-width="2"/>
</g>
<g id="slines5">
    <path d="M521.2,440 529.3,440" stroke="#4800ff" fill="none" stroke-width="2"/>
    <path d="M521.2,435 529.2,435" stroke="#1200ff" fill="none" stroke-width="2"/>
    <path d="M521.2,430 529.2,430" stroke="#0036ff" fill="none" stroke-width="2"/>
    <path d="M521.3,425 529.3,425" stroke="#0090ff" fill="none" stroke-width="2"/>
    <path d="M521.4,420 529.4,420" stroke="#00c6ff" fill="none" stroke-width="2"/>
</g>
<g id="slines6">
    <path d="M521.5,415 529.5,415" stroke="#18ff00" fill="none" stroke-width="2"/>
    <path d="M522,410 530,410" stroke="#00ff2a" fill="none" stroke-width="2"/>
    <path d="M522.5,405 530.5,405" stroke="#00ff66" fill="none" stroke-width="2"/>
    <!--middle point-->
    <path d="M523,400 531,400" stroke="#00ffb4" fill="none" stroke-width="2"/>
    <path d="M524,395 531,395" stroke="#00fff0" fill="none" stroke-width="2"/>
</g>
<g id="slines7">
    <path d="M525,390 532,390" stroke="#00ff7e" fill="none" stroke-width="2"/>
    <path d="M526,385 533,385" stroke="#00ffc6" fill="none" stroke-width="2"/>
    <path d="M527,380 534,380" stroke="#00deff" fill="none" stroke-width="2"/>
    <path d="M528.5,375 535.5,375" stroke="#0096ff" fill="none" stroke-width="2"/>
    <path d="M530,370 537,370" stroke="#005aff" fill="none" stroke-width="2"/>
</g>
<g id="slines8">
    <path d="M531,365 539,365" stroke="#1e00ff" fill="none" stroke-width="2"/>
    <path d="M533,360 541,360" stroke="#6c00ff" fill="none" stroke-width="2"/>
    <path d="M536,355 543,355" stroke="#ae00ff" fill="none" stroke-width="2"/>
    <path d="M538,350 546,350" stroke="#ea00ff" fill="none" stroke-width="2"/>
    <path d="M541,345 549,345" stroke="#ff00ea" fill="none" stroke-width="2"/>
</g>
<g id="slines9">
    <path d="M544,340 552,340" stroke="#ff00c0" fill="none" stroke-width="2"/>
    <path d="M547,335 555,335" stroke="#ff0072" fill="none" stroke-width="2"/>
    <path d="M552,330 559,330" stroke="#ff004e" fill="none" stroke-width="2"/>
    <path d="M556,325 564,325" stroke="#ff000c" fill="none" stroke-width="2"/>
    <path d="M562,320 569,320" stroke="#ff3c00" fill="none" stroke-width="2"/>
</g>
<g id="slines10">
    <path d="M568,315 575,315" stroke="#ff8a00" fill="none" stroke-width="2"/>
    <path d="M576.5,310 582.5,310" stroke="#ffd200" fill="none" stroke-width="2"/><!--top-->
</g>

</g>

</svg>
